<?xml version="1.0" encoding="UTF-8"?>
<svg id="Layer_1" data-name="Layer 1" xmlns="http://www.w3.org/2000/svg" viewBox="0 0 183.44 180.17">
  <defs>
    <style>
      .cls-1 {
        fill: #f17b35;
      }

      .cls-1, .cls-2, .cls-3, .cls-4 {
        stroke-width: 0px;
      }

      .cls-2 {
        fill: #ee377c;
      }

      .cls-3 {
        fill: #00a6a6;
      }

      .cls-5 {
        fill: none;
        stroke: #27528c;
        stroke-miterlimit: 10;
        stroke-width: 5px;
      }

      .cls-4 {
        fill: #f1be20;
      }
    </style>
  </defs>
  <g>
    <path class="cls-1" d="M173.27,60.75c3.19,9,4.92,18.67,4.92,28.76s-1.73,19.77-4.92,28.77h-.02s-47.54,0-47.54,0c1.4-8.97,2.17-18.65,2.17-28.76s-.76-19.79-2.17-28.75h47.57Z"/>
    <path class="cls-4" d="M173.27,60.75h-.02s-47.54,0-47.54,0c-5.03-32.19-18.25-55.18-33.78-55.18l.03-2.33c37.55.02,69.49,24.01,81.32,57.5Z"/>
    <path class="cls-4" d="M173.25,118.26h.02c-11.84,33.51-43.79,57.51-81.35,57.51h-.03l.03-2.34c15.53,0,28.75-22.98,33.78-55.17h47.54Z"/>
    <path class="cls-2" d="M125.7,60.75c1.4,8.96,2.17,18.65,2.17,28.75s-.76,19.79-2.17,28.76H58.15c-1.4-8.97-2.17-18.65-2.17-28.76s.76-19.79,2.17-28.75h67.55Z"/>
    <path class="cls-1" d="M125.7,60.75H58.15C63.17,28.56,76.4,5.58,91.93,5.58s28.75,22.98,33.78,55.18Z"/>
    <path class="cls-3" d="M58.15,118.26h67.55c-5.03,32.19-18.25,55.17-33.78,55.17s-28.75-22.98-33.77-55.17Z"/>
    <path class="cls-3" d="M91.96,3.25l-.03,2.33c-15.53,0-28.75,22.98-33.77,55.18H10.59C22.42,27.24,54.37,3.25,91.93,3.25h.03Z"/>
    <path class="cls-1" d="M91.93,173.43l-.03,2.34c-37.54-.02-69.47-24.01-81.31-57.5h.02s47.54,0,47.54,0c5.02,32.19,18.25,55.17,33.77,55.17Z"/>
    <path class="cls-4" d="M10.61,60.75h47.54c-1.4,8.96-2.17,18.65-2.17,28.75s.76,19.79,2.17,28.76H10.59c-3.19-8.99-4.92-18.67-4.92-28.76s1.73-19.76,4.92-28.76h.02Z"/>
  </g>
  <g>
    <path class="cls-5" d="M10.59,60.75C22.42,27.24,54.37,3.25,91.93,3.25h.03c37.55.02,69.49,24.01,81.32,57.5,3.19,9,4.92,18.67,4.92,28.76s-1.73,19.77-4.92,28.77c-11.84,33.5-43.79,57.5-81.35,57.5h-.03c-37.54-.02-69.47-24.01-81.31-57.5-3.19-9-4.92-18.68-4.92-28.77s1.73-19.76,4.92-28.76Z"/>
    <polyline class="cls-5" points="10.61 60.75 58.15 60.75 125.7 60.75 173.25 60.75"/>
    <polyline class="cls-5" points="10.61 118.26 58.15 118.26 125.7 118.26 173.25 118.26"/>
    <path class="cls-5" d="M91.93,5.58c15.53,0,28.75,22.98,33.78,55.18,1.4,8.96,2.17,18.65,2.17,28.75s-.76,19.79-2.17,28.76c-5.03,32.19-18.25,55.17-33.78,55.17s-28.75-22.98-33.77-55.17c-1.4-8.97-2.17-18.65-2.17-28.76s.76-19.79,2.17-28.75C63.17,28.56,76.4,5.58,91.93,5.58Z"/>
  </g>
</svg>